<?xml version="1.0" standalone="no"?>
<!DOCTYPE svg PUBLIC "-//W3C//DTD SVG 20010904//EN"
 "http://www.w3.org/TR/2001/REC-SVG-20010904/DTD/svg10.dtd">
<svg version="1.0" xmlns="http://www.w3.org/2000/svg"
 width="300.000000pt" height="144.000000pt" viewBox="0 0 300.000000 144.000000"
 preserveAspectRatio="xMidYMid meet">
<metadata>
Created by potrace 1.10, written by Peter Selinger 2001-2011
</metadata>
<g transform="translate(0.000000,144.000000) scale(0.100000,-0.100000)"
fill="#ba5858" stroke="none">
<path d="M2240 909 l0 -90 -22 15 c-29 20 -90 20 -128 1 -40 -20 -60 -63 -60
-125 0 -43 5 -56 33 -86 39 -43 97 -55 145 -30 24 12 34 27 47 73 15 51 15 61
2 94 -8 21 -12 41 -8 44 3 4 11 21 18 38 10 27 12 14 12 -97 1 -106 -1 -127
-13 -123 -8 3 -16 -2 -19 -14 -4 -16 0 -19 29 -19 l34 0 0 205 0 205 -35 0
-35 0 0 -91z m37 -1 c-2 -13 -4 -5 -4 17 -1 22 1 32 4 23 2 -10 2 -28 0 -40z
m-127 -88 c0 -5 -7 -10 -16 -10 -19 0 -50 -33 -60 -62 -9 -30 4 -83 25 -102
10 -10 32 -21 47 -26 l29 -8 -28 -1 c-40 -1 -67 16 -82 52 -27 64 -4 135 50
158 27 11 35 11 35 -1z m70 -50 c27 -27 27 -83 -2 -110 -66 -62 -164 31 -108
103 27 34 80 37 110 7z"/>
<path d="M452 958 c-17 -17 -15 -32 7 -52 24 -21 57 -14 66 15 13 39 -43 67
-73 37z m48 -22 c0 -11 -19 -15 -25 -6 -3 5 1 10 9 10 9 0 16 -2 16 -4z"/>
<path d="M450 720 l0 -130 35 0 35 0 0 130 0 130 -35 0 -35 0 0 -130z m37 -7
l0 -108 -6 100 c-6 93 -5 115 3 115 2 0 3 -48 3 -107z"/>
<path d="M580 717 l0 -133 35 4 35 4 0 87 c0 94 8 111 50 111 42 0 50 -17 50
-111 l0 -87 36 -4 36 -4 -4 107 c-3 98 -5 110 -27 133 -32 34 -94 36 -128 4
l-23 -21 0 21 c0 18 -6 22 -30 22 l-30 0 0 -133z m188 93 c20 -19 22 -30 20
-108 l-1 -87 -6 77 c-5 60 -11 81 -28 100 -38 40 -25 55 15 18z m-136 -45 c-7
-14 -13 -56 -14 -93 -2 -61 -2 -58 -7 28 -7 113 -5 128 17 106 13 -12 13 -20
4 -41z"/>
<path d="M880 717 l0 -133 35 4 35 4 0 87 c0 95 7 111 52 111 38 0 48 -24 48
-122 l0 -84 36 4 36 4 -4 103 c-3 93 -5 106 -27 129 -32 34 -94 36 -128 4
l-23 -21 0 21 c0 18 -6 22 -30 22 l-30 0 0 -133z m198 86 c14 -20 16 -79 2
-88 -6 -4 -10 6 -10 22 0 33 -25 73 -45 73 -8 0 -16 4 -19 9 -10 16 59 1 72
-16z m-148 -32 c-5 -11 -10 -49 -10 -85 0 -41 -4 -66 -11 -66 -7 0 -10 31 -8
93 3 105 5 113 25 92 11 -11 12 -19 4 -34z m160 -111 c0 -16 -4 -30 -8 -30 -5
0 -7 14 -4 30 2 17 6 30 8 30 2 0 4 -13 4 -30z"/>
<path d="M1213 829 c-44 -28 -68 -92 -54 -146 22 -81 122 -129 194 -92 27 14
77 60 77 71 0 14 -74 8 -94 -7 -29 -22 -64 -18 -91 10 -31 30 -32 64 -4 100
20 24 26 26 63 21 23 -4 61 -9 84 -12 l44 -6 -18 26 c-37 57 -139 75 -201 35z
m53 -14 c-11 -8 -23 -15 -28 -15 -13 0 -38 -57 -38 -87 0 -27 22 -70 44 -85
13 -9 3 -10 -19 -2 -8 4 -23 20 -31 36 -30 59 3 150 60 161 11 2 23 5 26 5 3
1 -4 -5 -14 -13z m95 -12 c13 -15 12 -15 -11 -3 -34 17 -36 20 -18 20 9 0 22
-7 29 -17z m-1 -178 c-7 -8 -24 -14 -39 -14 -20 1 -22 2 -6 6 11 3 24 9 30 14
15 15 28 10 15 -6z"/>
<path d="M1533 830 c-17 -10 -37 -29 -43 -41 -11 -20 -10 -21 32 -16 23 3 58
9 76 13 20 4 38 2 47 -6 13 -11 20 -9 40 10 l25 24 -27 18 c-37 24 -109 23
-150 -2z m53 -15 c-22 -16 -57 -21 -40 -6 7 8 29 15 54 20 3 0 -4 -6 -14 -14z
m74 -5 c0 -5 -9 -6 -20 -3 -11 3 -20 9 -20 13 0 5 9 6 20 3 11 -3 20 -9 20
-13z"/>
<path d="M1783 831 c-88 -55 -81 -191 11 -235 67 -32 150 -11 186 46 32 50 24
129 -18 171 -26 26 -40 31 -89 34 -45 3 -65 0 -90 -16z m127 -17 c0 -2 -7 -4
-15 -4 -8 0 -15 4 -15 10 0 5 7 7 15 4 8 -4 15 -8 15 -10z m-86 -4 c-30 -12
-64 -58 -64 -87 0 -38 29 -83 63 -99 l32 -15 -30 6 c-47 9 -75 48 -75 104 0
39 5 53 26 75 15 14 36 26 48 25 l21 0 -21 -9z m138 -38 c25 -44 16 -101 -21
-134 -19 -17 -42 -28 -59 -27 l-27 1 31 9 c66 19 94 96 55 149 -24 34 -26 41
-8 34 7 -2 20 -17 29 -32z m-50 1 c26 -29 30 -60 14 -91 -38 -73 -136 -48
-136 35 0 20 7 45 17 55 21 24 84 24 105 1z"/>
<path d="M2395 819 c-80 -71 -60 -191 38 -228 54 -21 105 -12 149 27 16 14 16
16 -7 34 -23 18 -26 18 -41 4 -27 -27 -63 -31 -92 -9 -54 40 -42 48 68 45
l100 -3 0 25 c0 45 -31 106 -61 121 -15 8 -48 15 -73 15 -36 0 -52 -6 -81 -31z
m173 -45 c-4 -3 -12 5 -18 18 -12 22 -12 22 6 6 10 -10 15 -20 12 -24z m-170
1 c-8 -19 -8 -28 2 -40 10 -12 10 -19 2 -27 -17 -17 -15 -38 5 -60 9 -10 11
-18 5 -18 -16 0 -42 53 -42 85 0 14 7 39 15 55 19 36 29 40 13 5z m126 9 c33
-32 20 -44 -49 -44 -36 0 -65 3 -65 8 0 4 7 18 16 30 18 26 74 30 98 6z m56
-49 c0 -8 -9 -15 -20 -15 -17 0 -19 2 -8 15 17 19 28 19 28 0z"/>
<path d="M1340 735 c-10 -12 -10 -18 0 -30 11 -13 33 -15 119 -13 94 3 106 5
109 22 6 29 -16 36 -119 36 -74 0 -99 -4 -109 -15z"/>
<path d="M1480 661 c0 -15 49 -61 75 -71 39 -15 86 -11 123 8 l33 18 -26 24
c-19 18 -28 21 -37 12 -17 -17 -63 -15 -78 3 -13 16 -90 21 -90 6z m94 -36
c15 -11 16 -15 5 -15 -8 0 -24 7 -35 15 -14 11 -15 14 -4 14 8 0 24 -6 34 -14z
m86 -5 c0 -5 -15 -9 -32 -9 l-33 1 30 8 c17 4 31 8 33 9 1 0 2 -3 2 -9z"/>
</g>
</svg>
