<?xml version="1.0" standalone="no"?>
<!DOCTYPE svg PUBLIC "-//W3C//DTD SVG 20010904//EN"
 "http://www.w3.org/TR/2001/REC-SVG-20010904/DTD/svg10.dtd">
<svg version="1.0" xmlns="http://www.w3.org/2000/svg"
 width="300.000000pt" height="303.000000pt" viewBox="0 0 300.000000 303.000000"
 preserveAspectRatio="xMidYMid meet">
<metadata>
Created by potrace 1.10, written by Peter Selinger 2001-2011
</metadata>
<g transform="translate(0.000000,303.000000) scale(0.100000,-0.100000)"
fill="#ba5858" stroke="none">
<path d="M1250 2798 c-71 -49 -75 -61 -75 -246 0 -92 4 -178 9 -191 l8 -23
-32 23 c-30 22 -42 24 -191 27 -145 3 -164 1 -203 -17 -114 -56 -114 -226 0
-282 39 -18 58 -20 198 -17 l155 3 -28 -30 c-15 -16 -88 -97 -162 -180 -73
-82 -186 -205 -250 -273 -64 -67 -125 -142 -137 -165 -19 -39 -21 -65 -28
-348 -6 -280 -5 -308 11 -342 10 -21 29 -47 44 -59 16 -12 21 -22 14 -25 -6
-2 -30 -17 -52 -34 l-41 -29 0 -128 c0 -121 1 -130 23 -150 21 -20 34 -22 123
-22 l100 0 11 -30 c15 -39 46 -50 147 -50 69 0 88 4 110 21 14 11 26 29 26 40
0 19 14 19 603 19 l604 0 21 23 c20 21 22 34 22 153 0 149 -5 163 -68 171 -23
3 -42 8 -42 10 0 3 12 14 26 26 45 35 64 91 64 195 0 81 2 92 18 92 63 1 160
82 198 164 46 100 64 459 30 599 -40 168 -140 264 -286 275 l-68 5 -17 110
c-19 123 -30 153 -75 190 -40 34 -83 41 -175 30 -69 -8 -97 -3 -61 10 28 11
49 67 44 117 -6 58 -35 102 -84 125 -54 25 -98 15 -212 -49 -55 -31 -102 -56
-103 -56 -2 0 -3 53 -1 117 2 104 0 122 -18 151 -43 70 -136 93 -200 50z m131
-16 c52 -21 64 -55 61 -183 -3 -96 -1 -118 13 -129 13 -11 22 -10 53 5 20 10
39 19 42 20 3 1 21 11 40 23 19 11 39 21 44 21 5 -1 12 3 15 8 16 22 68 30
113 16 39 -11 49 -20 67 -56 24 -50 20 -94 -11 -140 -35 -49 -20 -58 87 -56
88 1 99 -1 135 -25 32 -21 42 -36 54 -78 8 -29 14 -60 14 -68 -1 -79 28 -159
57 -161 98 -9 147 -22 196 -55 47 -31 108 -123 114 -171 2 -15 4 -28 5 -28 6
0 11 -72 15 -205 4 -178 -13 -324 -46 -394 -25 -55 -96 -120 -147 -137 -58
-18 -62 -25 -62 -103 0 -92 -21 -164 -59 -200 -24 -23 -28 -33 -20 -47 5 -11
21 -19 34 -19 14 0 33 -8 44 -19 16 -16 18 -34 18 -134 0 -85 -4 -122 -14
-137 -14 -20 -23 -20 -610 -20 -607 0 -623 0 -623 -37 0 -25 -60 -42 -139 -38
-71 4 -76 5 -105 39 l-31 36 -94 1 c-129 2 -131 4 -129 151 2 123 -4 108 72
171 l30 24 -31 39 c-46 59 -50 73 -48 154 1 41 4 176 5 300 3 256 5 265 89
354 25 27 78 84 117 125 39 42 95 103 124 136 29 33 58 65 64 70 6 6 45 48 86
95 41 47 82 93 92 103 10 10 18 24 18 31 0 27 -26 35 -108 32 -45 -2 -85 1
-87 5 -3 4 -19 4 -35 -1 -69 -20 -153 9 -181 62 -17 32 -19 99 -3 129 7 15 28
38 46 51 31 22 41 23 189 22 126 -1 162 -5 192 -19 21 -10 41 -14 45 -10 4 3
8 82 9 173 1 190 5 216 29 243 41 45 93 56 155 31z"/>
<path d="M1304 2730 c-44 -17 -49 -35 -49 -186 0 -129 2 -145 21 -171 26 -35
53 -40 84 -15 22 18 23 24 24 177 1 163 -4 187 -42 197 -10 3 -27 2 -38 -2z
m51 -30 c5 -7 8 -203 5 -307 0 -7 -9 -17 -19 -23 -14 -7 -24 -5 -41 8 -20 16
-21 26 -21 160 0 96 4 148 12 158 13 16 55 19 64 4z"/>
<path d="M1620 2468 c-41 -22 -77 -43 -80 -47 -3 -3 -22 -14 -42 -25 -44 -22
-65 -64 -49 -95 16 -29 44 -41 72 -33 19 6 249 131 249 136 0 1 4 15 9 33 7
25 5 35 -10 52 -28 30 -63 25 -149 -21z m124 16 c9 -4 16 -18 16 -34 0 -26
-11 -34 -119 -94 -125 -70 -154 -78 -171 -47 -15 29 10 51 130 120 108 62 117
65 144 55z"/>
<path d="M781 2274 c-27 -34 -26 -55 2 -82 22 -21 33 -22 173 -22 102 1 154 4
164 13 23 18 25 75 4 98 -15 17 -32 19 -170 19 l-153 0 -20 -26z m327 -6 c16
-16 15 -53 -2 -67 -9 -8 -60 -11 -156 -9 -131 3 -144 5 -156 23 -12 18 -11 24
2 43 14 21 22 22 158 22 97 0 146 -4 154 -12z"/>
<path d="M1650 2204 l-285 -23 -55 -58 c-155 -165 -666 -738 -672 -755 -5 -11
-11 -147 -15 -303 -4 -213 -3 -288 6 -299 15 -18 53 -23 316 -40 353 -23 557
-28 760 -16 232 12 339 26 385 48 44 21 58 69 59 199 l1 92 33 5 c17 3 50 8
72 11 51 9 119 74 133 130 21 79 35 325 23 415 -14 116 -27 155 -63 196 -49
55 -75 64 -187 64 l-99 0 -6 28 c-3 15 -13 74 -21 132 -22 158 -25 168 -41
185 -9 8 -25 14 -37 14 -12 -1 -150 -12 -307 -25z m338 -11 c6 -10 13 -43 16
-73 6 -50 14 -102 31 -212 7 -45 18 -49 133 -52 102 -3 140 -19 177 -74 34
-51 47 -132 48 -287 1 -321 -35 -401 -188 -419 -27 -4 -55 -12 -62 -19 -8 -7
-13 -48 -14 -111 -1 -54 -6 -113 -12 -132 -11 -36 -28 -45 -127 -63 -177 -32
-701 -35 -1095 -6 -185 13 -232 19 -243 28 -18 14 -10 564 9 599 6 13 37 50
68 83 31 33 132 145 225 248 93 104 174 194 180 200 6 7 56 62 110 122 54 61
104 116 111 123 12 13 154 29 430 47 55 4 102 9 104 11 2 2 24 4 47 4 31 0 46
-5 52 -17z"/>
<path d="M1739 2130 c-15 -4 -72 -10 -128 -13 -95 -5 -131 -16 -131 -39 0 -13
69 -127 94 -155 11 -13 24 -23 30 -23 6 0 40 27 76 59 36 33 69 57 74 53 5 -3
6 -1 3 5 -3 5 10 24 28 42 19 18 35 36 35 39 -1 28 -42 44 -81 32z m-35 -116
c-57 -53 -106 -95 -108 -93 -13 18 -96 162 -94 164 3 2 53 6 285 23 17 2 -5
-24 -83 -94z"/>
<path d="M1769 1949 c-79 -71 -155 -142 -169 -157 -62 -68 -100 -115 -100
-124 0 -5 -6 -6 -12 -2 -7 4 -10 3 -5 -1 4 -5 -6 -22 -23 -39 -16 -17 -55 -64
-85 -104 -32 -41 -61 -69 -67 -66 -6 4 -8 2 -5 -3 4 -6 0 -14 -9 -17 -9 -4
-14 -9 -11 -12 3 -4 1 -12 -6 -19 -7 -7 -19 -21 -27 -32 -71 -89 -93 -112
-101 -107 -5 3 -8 0 -7 -8 2 -7 -4 -12 -12 -10 -8 2 -12 1 -8 -3 9 -9 -43 -61
-57 -57 -5 2 -7 0 -3 -4 8 -7 -57 -74 -73 -74 -5 0 -8 -3 -6 -7 1 -5 -2 -10
-6 -13 -20 -12 -247 -243 -247 -252 0 -14 44 -27 112 -33 35 -3 73 -8 85 -11
13 -2 58 -6 100 -9 43 -3 114 -7 158 -10 194 -13 585 -6 660 12 11 3 47 9 80
13 97 14 118 23 128 56 7 26 1 419 -7 433 -2 3 -7 38 -11 76 -10 109 -32 286
-55 450 -12 83 -24 170 -27 195 -5 44 -18 70 -33 70 -4 0 -72 -59 -151 -131z
m242 -514 c15 -132 22 -252 23 -395 l1 -205 -110 -19 c-158 -28 -674 -29 -965
-2 -113 10 -206 20 -208 21 -2 2 121 123 292 286 55 52 208 225 341 384 194
232 272 318 391 427 l149 137 32 -222 c18 -122 42 -307 54 -412z"/>
<path d="M1610 1537 c0 -114 4 -207 8 -207 10 0 7 398 -2 408 -3 3 -6 -88 -6
-201z"/>
<path d="M1682 1708 c-21 -21 -13 -54 31 -131 23 -41 69 -134 102 -205 63
-140 82 -160 126 -138 44 21 36 54 -56 243 -100 206 -124 243 -164 243 -15 0
-32 -5 -39 -12z m68 -24 c0 -8 5 -12 10 -9 6 3 10 1 10 -5 0 -6 8 -22 17 -36
34 -52 163 -336 163 -358 0 -16 -7 -26 -22 -30 -27 -7 -40 7 -73 79 -55 122
-86 185 -124 254 -51 91 -53 121 -11 121 21 0 30 -5 30 -16z"/>
<path d="M1422 1414 c-36 -25 -28 -59 31 -121 76 -81 365 -346 394 -361 34
-18 73 6 73 46 0 23 -19 46 -102 123 -57 52 -158 147 -225 211 -66 65 -127
118 -135 118 -7 0 -24 -7 -36 -16z m122 -85 c35 -38 67 -69 72 -69 11 0 149
-134 146 -142 -1 -4 7 -9 17 -13 11 -3 38 -26 60 -50 23 -25 41 -41 42 -37 0
4 5 -4 10 -17 13 -32 3 -60 -21 -58 -10 1 -17 4 -14 8 2 4 -6 11 -18 15 -32
10 -129 104 -121 118 3 6 3 8 -2 4 -11 -10 -47 11 -40 23 4 5 1 9 -5 9 -14 0
-66 52 -62 63 1 5 -1 6 -6 3 -12 -7 -182 167 -182 186 0 21 19 36 41 31 10 -3
48 -36 83 -74z"/>
<path d="M1141 1174 c0 -11 3 -14 6 -6 3 7 2 16 -1 19 -3 4 -6 -2 -5 -13z"/>
<path d="M1157 1142 c-22 -24 -22 -55 1 -75 35 -32 391 -207 420 -207 37 0 54
20 50 57 -3 24 -15 34 -88 71 -47 24 -140 72 -208 108 -67 35 -131 64 -141 64
-10 0 -25 -8 -34 -18z m65 -20 c-1 -8 2 -11 7 -8 12 8 342 -159 333 -169 -4
-3 -2 -6 3 -5 31 7 42 -1 42 -31 0 -29 -2 -31 -33 -26 -33 6 -145 54 -154 66
-3 4 -18 13 -35 18 -16 6 -70 33 -120 60 -87 48 -104 66 -91 99 7 19 52 14 48
-4z"/>
<path d="M1617 1093 c-4 -3 -7 -15 -7 -26 0 -25 13 -14 15 13 2 22 1 23 -8 13z"/>
<path d="M1140 943 c0 -68 4 -123 8 -123 11 0 12 214 1 231 -5 9 -9 -34 -9
-108z"/>
<path d="M1610 1024 c0 -8 5 -12 10 -9 6 4 8 11 5 16 -9 14 -15 11 -15 -7z"/>
<path d="M1332 2026 c-22 -24 -44 -41 -48 -38 -4 4 -5 2 -1 -3 3 -6 -19 -37
-49 -70 -91 -99 -77 -109 111 -86 78 9 146 21 153 25 22 14 12 51 -37 131 -30
50 -56 81 -68 83 -13 2 -34 -13 -61 -42z m115 -64 l51 -87 -116 -17 c-65 -9
-134 -19 -155 -22 l-38 -6 98 109 c54 60 100 110 103 110 3 0 28 -39 57 -87z"/>
<path d="M1330 1770 c-19 -5 -60 -10 -90 -13 -79 -8 -118 -17 -131 -33 -8 -10
-8 -38 2 -111 7 -54 13 -117 13 -140 1 -22 4 -39 9 -36 4 2 7 -2 7 -10 0 -8 7
-20 15 -27 12 -10 22 -5 58 31 24 24 57 62 73 84 16 22 36 47 44 55 19 19 124
150 134 168 21 36 -47 52 -134 32z m120 -15 c0 -4 -251 -307 -280 -338 -4 -5
-15 52 -24 125 -10 73 -20 143 -23 156 -5 20 -1 22 33 23 22 0 91 9 154 19
136 21 140 21 140 15z"/>
<path d="M2130 1742 c-71 -5 -77 -18 -55 -132 14 -78 32 -221 42 -335 3 -38 9
-75 15 -81 12 -17 89 -6 111 15 25 24 38 126 38 297 1 214 -19 245 -151 236z
m106 -36 c26 -37 37 -127 30 -261 -7 -137 -18 -211 -32 -225 -5 -5 -27 -12
-50 -15 l-41 -7 -12 118 c-14 137 -38 334 -47 383 l-5 33 71 -4 c55 -3 75 -8
86 -22z"/>
<path d="M990 1637 c-54 -47 -200 -217 -200 -232 0 -19 57 -45 110 -50 14 -1
53 -8 88 -15 75 -15 92 -10 92 27 0 52 -33 268 -43 281 -13 17 -18 15 -47 -11z
m53 -139 c9 -77 15 -143 13 -145 -4 -4 -236 44 -242 50 -4 3 199 235 206 236
3 1 13 -63 23 -141z"/>
<path d="M732 1307 c-6 -7 -14 -82 -18 -168 -6 -131 -5 -156 8 -167 16 -13 48
-7 48 9 0 5 4 9 8 9 8 0 213 199 240 232 23 28 -1 55 -55 63 -26 4 -48 7 -48
7 0 0 -29 6 -65 13 -82 18 -105 18 -118 2z m157 -34 l124 -28 -139 -132 c-76
-72 -139 -131 -141 -130 -1 2 1 74 4 160 4 102 10 157 17 157 6 0 67 -12 135
-27z"/>
<path d="M2071 884 c0 -11 3 -14 6 -6 3 7 2 16 -1 19 -3 4 -6 -2 -5 -13z"/>
<path d="M1961 609 c-24 -20 -25 -24 -8 -54 15 -25 18 -106 5 -122 -15 -19
-25 -7 -33 36 -9 57 -36 81 -90 81 -27 0 -50 -6 -60 -16 -14 -15 -18 -15 -33
-1 -12 10 -38 15 -84 16 -58 0 -70 -3 -82 -21 -15 -21 -16 -21 -35 -4 -11 10
-36 21 -55 26 -30 7 -42 4 -71 -16 -34 -23 -35 -23 -45 -4 -9 17 -21 20 -93
20 -120 0 -126 -11 -75 -120 47 -100 90 -106 129 -20 12 28 26 50 30 50 4 0
10 -12 14 -27 15 -67 84 -100 144 -69 17 9 31 22 31 28 0 6 11 0 25 -14 35
-36 107 -36 126 -1 10 19 10 28 1 43 -16 26 -15 30 7 30 11 0 26 9 34 21 16
22 31 12 16 -11 -17 -28 -10 -68 17 -89 20 -16 38 -20 83 -18 32 1 65 8 73 15
12 10 18 9 28 -3 14 -17 98 -14 109 4 6 9 11 8 21 -4 17 -20 43 -19 63 3 22
25 21 45 -3 67 l-20 18 20 14 c22 16 26 53 8 71 -7 7 -31 12 -55 12 -39 0 -43
2 -43 24 0 44 -61 65 -99 35z m77 -74 c-2 -54 0 -65 12 -63 8 2 16 16 18 31 3
24 7 27 43 27 35 0 39 -2 39 -26 0 -18 -4 -25 -14 -21 -8 3 -21 -2 -30 -12
-15 -16 -15 -19 2 -34 10 -10 24 -17 30 -17 7 0 12 -9 12 -20 0 -32 -44 -26
-70 10 -21 29 -50 41 -50 20 0 -5 5 -10 10 -10 6 0 10 -9 10 -20 0 -17 -7 -20
-40 -20 -33 0 -40 3 -40 20 0 11 5 20 10 20 6 0 10 30 10 70 0 40 -4 70 -10
70 -5 0 -10 9 -10 20 0 16 7 20 36 20 l36 0 -4 -65z m-768 -24 c0 -11 -5 -21
-11 -23 -7 -2 -7 -12 2 -31 17 -37 31 -15 23 36 l-6 37 41 0 c37 0 41 -2 41
-25 0 -14 -5 -24 -11 -23 -6 2 -20 -21 -32 -50 -17 -46 -23 -53 -45 -50 -20 2
-29 14 -45 55 -11 29 -23 50 -28 47 -5 -3 -9 6 -9 20 0 24 4 26 40 26 33 0 40
-3 40 -19z m255 -6 c42 -41 30 -102 -24 -125 -61 -25 -126 40 -101 101 23 54
84 66 125 24z m205 -6 c0 -24 -4 -29 -26 -29 -16 0 -23 4 -18 11 4 7 1 10 -7
7 -21 -7 -25 -68 -5 -68 9 0 16 -9 16 -20 0 -17 -7 -20 -50 -20 -43 0 -50 3
-50 20 0 11 5 20 10 20 6 0 10 16 10 36 0 21 -4 33 -10 29 -6 -3 -10 5 -10 19
0 24 2 25 70 24 l70 0 0 -29z m154 15 c9 -9 16 -32 16 -55 0 -21 5 -39 10 -39
6 0 10 -8 10 -19 0 -15 -10 -19 -52 -24 -63 -6 -98 11 -98 48 0 29 32 49 67
42 15 -3 22 0 20 7 -2 6 -20 11 -40 10 -43 -1 -58 22 -24 36 35 14 74 11 91
-6z m-299 -65 c1 -11 -1 -22 -5 -24 -3 -2 -7 10 -8 28 -2 17 1 28 5 24 4 -4 7
-17 8 -28z"/>
<path d="M1447 483 c-12 -11 -8 -50 7 -62 30 -25 71 24 46 54 -13 16 -42 20
-53 8z"/>
<path d="M1817 433 c-14 -13 -6 -24 15 -21 27 4 36 28 11 28 -11 0 -23 -3 -26
-7z"/>
<path d="M621 569 c-25 -37 -30 -52 -23 -65 7 -13 6 -24 -4 -39 -18 -28 -8
-81 18 -99 14 -10 29 -12 51 -5 20 5 35 5 43 -2 18 -15 51 -2 85 33 31 33 35
48 19 78 -7 13 -7 21 1 26 32 19 48 -80 23 -138 -23 -51 -8 -68 57 -68 47 0
86 21 74 40 -3 5 7 17 22 27 15 10 32 23 36 31 7 10 13 7 28 -12 16 -20 27
-24 60 -22 52 3 79 28 61 57 -7 11 -13 40 -14 65 0 24 -4 47 -9 50 -4 2 -3 16
3 29 9 21 8 29 -7 45 -10 11 -26 20 -35 20 -22 0 -50 -31 -50 -56 0 -10 -7
-27 -14 -37 -13 -16 -15 -16 -39 3 -19 15 -40 20 -90 20 -37 0 -69 -5 -73 -11
-9 -15 -24 9 -24 39 0 30 -39 49 -69 33 -14 -8 -27 -9 -39 -2 -34 18 -58 8
-91 -40z m83 4 c-6 -22 -4 -24 17 -21 13 2 26 12 29 23 3 12 14 20 28 21 20 1
22 -3 17 -23 -3 -13 -1 -23 5 -23 5 0 10 -9 10 -20 0 -11 -6 -20 -14 -20 -7 0
-16 -11 -18 -25 -4 -17 -1 -25 8 -25 16 0 16 -2 8 -24 -3 -9 -12 -16 -20 -16
-8 0 -14 -9 -14 -20 0 -15 -7 -20 -26 -20 -21 0 -25 4 -21 20 4 16 0 20 -19
20 -17 0 -24 -6 -24 -20 0 -15 -7 -20 -29 -20 -24 0 -28 3 -24 20 3 11 0 20
-6 20 -17 0 -13 19 9 37 23 20 27 53 6 53 -9 0 -12 7 -9 20 3 11 11 20 18 20
7 0 15 10 18 23 4 15 14 22 31 23 23 2 25 -1 20 -23z m426 12 c15 -18 5 -35
-20 -35 -10 0 -22 5 -25 10 -7 11 12 40 25 40 4 0 13 -7 20 -15z m-133 -77
c16 -15 23 -33 23 -58 0 -47 -28 -74 -75 -72 -25 1 -35 -3 -35 -13 0 -8 8 -15
18 -15 11 0 18 -7 18 -20 0 -17 -7 -20 -51 -20 -44 0 -51 3 -51 20 0 11 6 20
13 20 9 0 13 20 13 70 0 40 -4 70 -10 70 -5 0 -10 9 -10 20 0 18 7 20 62 20
50 0 66 -4 85 -22z m133 -33 c0 -30 5 -55 10 -55 6 0 10 -9 10 -20 0 -17 -7
-20 -45 -20 -38 0 -45 3 -45 20 0 11 7 20 15 20 10 0 15 11 15 35 0 26 -3 33
-15 29 -11 -5 -15 1 -15 20 0 23 4 26 35 26 l35 0 0 -55z m-73 -37 c-3 -8 -6
-5 -6 6 -1 11 2 17 5 13 3 -3 4 -12 1 -19z"/>
<path d="M690 501 c0 -5 -3 -16 -6 -25 -5 -12 0 -16 20 -16 21 0 26 5 26 25 0
18 -5 25 -20 25 -11 0 -20 -4 -20 -9z"/>
<path d="M925 475 c-3 -8 -7 -22 -10 -30 -2 -8 3 -19 13 -24 21 -12 52 4 52
27 0 36 -46 58 -55 27z"/>
</g>
</svg>
